<?xml version="1.0" standalone="no"?>
<!DOCTYPE svg PUBLIC "-//W3C//DTD SVG 20010904//EN"
 "http://www.w3.org/TR/2001/REC-SVG-20010904/DTD/svg10.dtd">
<svg version="1.0" xmlns="http://www.w3.org/2000/svg"
 width="500.000000pt" height="500.000000pt" viewBox="0 0 500.000000 500.000000"
 preserveAspectRatio="xMidYMid meet">

<g transform="translate(0.000000,500.000000) scale(0.100000,-0.100000)"
fill="#000000" stroke="none">
<path d="M0 2500 l0 -2500 2500 0 2500 0 0 2500 0 2500 -2500 0 -2500 0 0
-2500z m1154 1274 c9 -4 16 -18 16 -34 0 -22 -7 -30 -40 -43 -25 -9 -40 -22
-40 -32 0 -15 398 -1213 407 -1224 8 -10 21 27 139 376 68 202 128 375 133
383 4 8 21 15 37 15 l29 0 130 -385 c72 -212 134 -385 139 -385 12 0 418 1215
412 1232 -3 7 -19 16 -36 20 -52 10 -64 67 -16 78 11 3 273 4 581 2 547 -3
562 -4 643 -26 226 -62 397 -186 523 -379 160 -245 183 -582 58 -847 -88 -187
-256 -351 -444 -433 -151 -66 -145 -65 -658 -69 l-468 -4 3 28 3 28 98 3 97 3
-2 817 -3 817 -85 3 c-96 4 -184 -19 -206 -53 -7 -11 -130 -371 -274 -800
-144 -429 -268 -795 -276 -813 -12 -30 -17 -33 -51 -30 l-38 3 -125 372 c-69
205 -129 372 -134 370 -5 -2 -62 -160 -127 -352 -65 -193 -123 -360 -129 -373
-8 -19 -16 -23 -47 -20 l-37 3 -56 165 c-31 91 -155 457 -275 814 -126 374
-227 658 -237 668 -10 10 -32 21 -49 25 -16 3 -34 14 -39 24 -13 23 -13 25 6
43 13 14 47 16 219 16 112 0 210 -3 219 -6z m68 -1942 c9 -31 25 -75 34 -97
l17 -40 32 95 c28 85 34 95 57 98 24 3 28 -2 58 -93 17 -52 35 -93 39 -91 4 3
20 45 36 95 l29 91 34 0 c18 0 32 -4 30 -9 -1 -5 -21 -63 -43 -129 l-40 -121
-36 -1 -37 0 -34 97 -35 97 -32 -97 -33 -97 -38 0 c-35 0 -39 3 -45 30 -4 16
-24 75 -45 130 l-37 100 36 0 c35 0 36 -1 53 -58z m668 33 c0 -25 0 -25 -95
-25 -95 0 -95 0 -95 -25 0 -24 2 -25 75 -25 l75 0 0 -27 0 -28 -75 3 -75 4 0
-32 0 -31 100 3 101 3 -3 -25 -3 -25 -130 -3 -130 -3 0 131 0 130 128 0 127 0
0 -25z m300 15 c34 -18 44 -48 25 -76 -9 -14 -26 -29 -38 -34 -21 -8 -21 -9
-2 -9 63 -2 87 -72 39 -110 -24 -19 -40 -21 -143 -21 l-116 0 0 130 0 130 108
0 c60 0 117 -5 127 -10z m429 -8 c50 -25 73 -62 73 -113 -1 -91 -61 -129 -202
-129 l-95 0 0 130 0 130 95 0 c71 0 104 -5 129 -18z m371 3 c58 -30 42 -95
-31 -121 -18 -7 -26 -13 -17 -13 10 -1 25 -12 33 -25 20 -30 43 -40 60 -26 9
8 14 4 17 -14 6 -32 -1 -43 -34 -51 -28 -7 -33 -4 -108 83 -14 16 -30 22 -60
22 l-40 0 0 -50 c0 -50 0 -50 -32 -50 l-33 0 0 130 0 130 108 0 c76 0 117 -4
137 -15z m294 -11 c4 -15 32 -72 61 -127 30 -55 55 -102 55 -103 0 -2 -15 -4
-34 -4 -28 0 -36 5 -46 30 -12 30 -13 30 -90 30 -77 0 -78 0 -90 -30 -10 -25
-18 -30 -46 -30 -19 0 -34 2 -34 4 0 1 24 48 54 102 30 54 58 111 61 127 7 25
11 27 55 27 43 0 48 -3 54 -26z m221 -65 c16 -50 33 -92 36 -95 3 -2 21 40 39
92 30 89 34 95 58 92 23 -3 29 -14 57 -98 l32 -95 17 40 c9 22 25 66 34 97 17
57 18 58 53 58 l36 0 -37 -100 c-21 -55 -41 -114 -45 -130 -6 -27 -10 -30 -45
-30 l-38 0 -33 97 -32 97 -35 -97 -34 -97 -37 0 -36 1 -40 121 c-22 66 -41
124 -43 129 -2 5 11 9 30 9 33 0 33 -1 63 -91z"/>
<path d="M3170 2900 l0 -820 75 0 c356 0 675 249 777 606 28 100 31 291 5 398
-68 276 -267 497 -530 587 -83 28 -203 49 -283 49 l-44 0 0 -820z m567 343
c131 -75 242 -139 247 -144 4 -4 -26 -33 -68 -64 l-75 -57 -188 108 c-103 59
-189 108 -191 110 -7 4 21 184 29 184 4 0 115 -61 246 -137z m70 -326 c1 -1
-4 -58 -10 -127 l-12 -125 -105 -55 c-58 -30 -167 -88 -243 -128 -76 -40 -137
-69 -134 -65 2 5 39 70 83 146 l78 137 41 0 c60 0 106 28 133 80 53 102 -13
210 -128 210 -115 0 -181 -110 -130 -213 l23 -45 -78 -134 c-42 -73 -80 -137
-84 -141 -8 -8 -21 276 -21 447 l0 91 101 71 101 71 192 -109 c105 -60 192
-110 193 -111z m-238 -23 c12 -15 21 -38 21 -51 0 -34 -42 -73 -80 -73 -38 0
-80 39 -80 73 0 42 36 77 80 77 30 0 43 -6 59 -26z"/>
<path d="M2020 1821 l0 -31 64 0 c45 0 67 4 76 15 21 25 -3 39 -75 43 l-65 4
0 -31z"/>
<path d="M2020 1710 l0 -31 78 3 c75 3 77 4 77 28 0 24 -2 25 -77 28 l-78 3 0
-31z"/>
<path d="M2460 1761 l0 -81 53 0 c34 0 63 7 85 20 27 17 32 25 32 58 0 56 -26
75 -106 80 l-64 4 0 -81z"/>
<path d="M2810 1805 c0 -35 0 -35 44 -35 64 0 104 10 111 28 10 27 -24 42 -92
42 l-63 0 0 -35z"/>
<path d="M3202 1785 l-22 -45 50 0 50 0 -22 45 c-12 25 -25 45 -28 45 -3 0
-16 -20 -28 -45z"/>
</g>
</svg>
